<?plantuml 1.2026.2?><svg xmlns="http://www.w3.org/2000/svg" xmlns:xlink="http://www.w3.org/1999/xlink" contentStyleType="text/css" data-diagram-type="STATE" height="728px" preserveAspectRatio="none" style="width:1403px;height:728px;background:#FFFFFF;" version="1.1" viewBox="0 0 1403 728" width="1403px" zoomAndPan="magnify"><title>Alarm task</title><defs/><g><g class="title" data-source-line="3"><text fill="#000000" font-family="sans-serif" font-size="14" font-weight="bold" lengthAdjust="spacing" textLength="73.9512" x="657.545" y="24.9659">Alarm task</text></g><!--cluster prealarm--><g class="cluster" data-qualified-name="prealarm" data-source-line="15" id="ent0004"><path d="M86.52,247.4879 L1256.52,247.4879 A12.5,12.5 0 0 1 1269.02,259.9879 L1269.02,271.5558 L74.02,271.5558 L74.02,259.9879 A12.5,12.5 0 0 1 86.52,247.4879" fill="#F1F1F1"/><rect fill="none" height="149.41" rx="12.5" ry="12.5" style="stroke:#181818;stroke-width:0.5;" width="1195" x="74.02" y="247.4879"/><line style="stroke:#181818;stroke-width:0.5;" x1="74.02" x2="1269.02" y1="271.5558" y2="271.5558"/><text fill="#000000" font-family="sans-serif" font-size="14" lengthAdjust="spacing" textLength="137.9835" x="602.5283" y="267.4539">Prealarm monitoring</text></g><!--cluster alarm--><g class="cluster" data-qualified-name="alarm" data-source-line="34" id="ent0009"><path d="M164.52,549.8979 L1212.52,549.8979 A12.5,12.5 0 0 1 1225.02,562.3979 L1225.02,573.9658 L152.02,573.9658 L152.02,562.3979 A12.5,12.5 0 0 1 164.52,549.8979" fill="#F1F1F1"/><rect fill="none" height="149.41" rx="12.5" ry="12.5" style="stroke:#181818;stroke-width:0.5;" width="1073" x="152.02" y="549.8979"/><line style="stroke:#181818;stroke-width:0.5;" x1="152.02" x2="1225.02" y1="573.9658" y2="573.9658"/><text fill="#000000" font-family="sans-serif" font-size="14" lengthAdjust="spacing" textLength="116.9276" x="630.0562" y="569.8639">Alarm monitoring</text></g><rect fill="#F1F1F1" height="40" rx="12.5" ry="12.5" style="stroke:#181818;stroke-width:0.5;" width="150.9515" x="153.54" y="301.1879"/><text fill="#000000" font-family="sans-serif" font-size="14" lengthAdjust="spacing" textLength="140.9515" x="158.54" y="326.6199">Temperature reading</text><text fill="#000000" font-family="sans-serif" font-size="14" lengthAdjust="spacing" textLength="170.6034" x="87.0483" y="417.8639">stop prealarm monitoring</text><ellipse cx="172.35" cy="396.8979" fill="#F1F1F1" rx="6" ry="6" style="stroke:#181818;stroke-width:1.5;"/><line style="stroke:#181818;stroke-width:1.5;" x1="176.7391" x2="168.9609" y1="401.287" y2="393.5088"/><line style="stroke:#181818;stroke-width:1.5;" x1="176.7391" x2="168.9609" y1="393.5088" y2="401.287"/><g class="entity" data-qualified-name="prealarm.prealarmTempMonitoring" id="ent0007"><rect fill="#F1F1F1" height="55.412" rx="12.5" ry="12.5" style="stroke:#181818;stroke-width:0.5;" width="198.7653" x="683.63" y="293.4879"/><line style="stroke:#181818;stroke-width:0.5;" x1="683.63" x2="882.3953" y1="322.5558" y2="322.5558"/><text fill="#000000" font-family="sans-serif" font-size="14" lengthAdjust="spacing" textLength="163.9394" x="701.0429" y="313.4539">Temperature monitoring</text><text fill="#000000" font-family="sans-serif" font-size="12" lengthAdjust="spacing" textLength="178.7653" x="688.63" y="340.3839">entry / timer = PREALARM_TIME</text></g><g class="start_entity" data-qualified-name="prealarm..start.prealarm" data-source-line="19" id="ent0008"><ellipse cx="108.02" cy="321.1879" fill="#222222" rx="10" ry="10" style="stroke:#222222;stroke-width:1;"/></g><g class="end_entity" data-qualified-name="prealarm..end.prealarm" data-source-line="26" id="ent0015"><ellipse cx="1206.02" cy="321.1879" fill="none" rx="11" ry="11" style="stroke:#222222;stroke-width:1;"/><ellipse cx="1206.02" cy="321.1879" fill="#222222" rx="6" ry="6" style="stroke:#222222;stroke-width:1;"/></g><rect fill="#F1F1F1" height="40" rx="12.5" ry="12.5" style="stroke:#181818;stroke-width:0.5;" width="150.9515" x="231.54" y="603.5979"/><text fill="#000000" font-family="sans-serif" font-size="14" lengthAdjust="spacing" textLength="140.9515" x="236.54" y="629.0299">Temperature reading</text><text fill="#000000" font-family="sans-serif" font-size="14" lengthAdjust="spacing" textLength="123.1015" x="663.6292" y="720.2739">return to prealarm</text><ellipse cx="725.18" cy="699.3079" fill="#F1F1F1" rx="6" ry="6" style="stroke:#181818;stroke-width:1.5;"/><line style="stroke:#181818;stroke-width:1.5;" x1="729.5691" x2="721.7909" y1="703.697" y2="695.9188"/><line style="stroke:#181818;stroke-width:1.5;" x1="729.5691" x2="721.7909" y1="695.9188" y2="703.697"/><g class="entity" data-qualified-name="alarm.alarmTempMonitoring" id="ent0012"><rect fill="#F1F1F1" height="55.412" rx="12.5" ry="12.5" style="stroke:#181818;stroke-width:0.5;" width="183.9394" x="739.05" y="595.8979"/><line style="stroke:#181818;stroke-width:0.5;" x1="739.05" x2="922.9894" y1="624.9658" y2="624.9658"/><text fill="#000000" font-family="sans-serif" font-size="14" lengthAdjust="spacing" textLength="163.9394" x="749.05" y="615.8639">Temperature monitoring</text><text fill="#000000" font-family="sans-serif" font-size="12" lengthAdjust="spacing" textLength="157.3691" x="744.05" y="642.7939">entry / timer = ALARM_TIME</text></g><g class="start_entity" data-qualified-name="alarm..start.alarm" data-source-line="38" id="ent0021"><ellipse cx="186.02" cy="623.5979" fill="#222222" rx="10" ry="10" style="stroke:#222222;stroke-width:1;"/></g><g class="end_entity" data-qualified-name="alarm..end.alarm" data-source-line="45" id="ent0028"><ellipse cx="1162.02" cy="623.5979" fill="none" rx="11" ry="11" style="stroke:#222222;stroke-width:1;"/><ellipse cx="1162.02" cy="623.5979" fill="#222222" rx="6" ry="6" style="stroke:#222222;stroke-width:1;"/></g><g class="entity" data-qualified-name="idle" id="ent0002"><rect fill="#F1F1F1" height="55.412" rx="12.5" ry="12.5" style="stroke:#181818;stroke-width:0.5;" width="132.0328" x="7" y="127.0679"/><line style="stroke:#181818;stroke-width:0.5;" x1="7" x2="139.0328" y1="156.1358" y2="156.1358"/><text fill="#000000" font-family="sans-serif" font-size="14" lengthAdjust="spacing" textLength="24.8639" x="60.5845" y="147.0339">Idle</text><text fill="#000000" font-family="sans-serif" font-size="12" lengthAdjust="spacing" textLength="112.0328" x="12" y="173.9639">entry / alarm led off</text></g><rect fill="#F1F1F1" height="40" rx="12.5" ry="12.5" style="stroke:#181818;stroke-width:0.5;" width="61.8838" x="320.07" y="134.7779"/><text fill="#000000" font-family="sans-serif" font-size="14" lengthAdjust="spacing" textLength="51.8838" x="325.07" y="160.2099">Blocked</text><rect fill="#F1F1F1" height="40" rx="12.5" ry="12.5" style="stroke:#181818;stroke-width:0.5;" width="114.2856" x="964.87" y="444.8979"/><text fill="#000000" font-family="sans-serif" font-size="14" lengthAdjust="spacing" textLength="104.2856" x="969.87" y="470.3299">Wait operations</text><g class="start_entity" data-qualified-name=".start." data-source-line="7" id="ent0002"><ellipse cx="73.02" cy="56.0679" fill="#222222" rx="10" ry="10" style="stroke:#222222;stroke-width:1;"/></g><!--link *start* to idle--><g class="link" data-entity-1="ent0002" data-entity-2="ent0002" data-link-type="dependency" data-source-line="7" id="lnk3"><path d="M73.02,66.3479 C73.02,80.1479 73.02,100.6479 73.02,120.8679" fill="none" id="*start*-to-idle" style="stroke:#181818;stroke-width:1;"/><polygon fill="#181818" points="73.02,126.8679,77.02,117.8679,73.02,121.8679,69.02,117.8679,73.02,126.8679" style="stroke:#181818;stroke-width:1;"/></g><!--link idle to blocked--><g class="link" data-entity-1="ent0002" data-entity-2="ent0003" data-link-type="dependency" data-source-line="10" id="lnk4"><path d="M139.18,172.9179 C147.01,174.5079 154.93,175.8579 162.55,176.7779 C192.12,180.3579 267.32,182.4579 296.55,176.7779 C304.26,175.2779 306.6666,174.859 314.0866,171.979" fill="none" id="idle-to-blocked" style="stroke:#181818;stroke-width:1;"/><polygon fill="#181818" points="319.68,169.8079,309.8425,169.3355,315.0188,171.6171,312.7372,176.7934,319.68,169.8079" style="stroke:#181818;stroke-width:1;"/><text fill="#000000" font-family="sans-serif" font-size="13" lengthAdjust="spacing" textLength="132.3401" x="163.55" y="172.6749">state == Alarm / block</text></g><!--reverse link idle to blocked--><g class="link" data-entity-1="ent0002" data-entity-2="ent0003" data-link-type="dependency" data-source-line="11" id="lnk6"><path d="M145.25,154.7779 C202.26,154.7779 276.02,154.7779 319.57,154.7779" fill="none" id="idle-backto-blocked" style="stroke:#181818;stroke-width:1;"/><polygon fill="#181818" points="139.25,154.7779,148.25,158.7779,144.25,154.7779,148.25,150.7779,139.25,154.7779" style="stroke:#181818;stroke-width:1;"/><text fill="#000000" font-family="sans-serif" font-size="13" lengthAdjust="spacing" textLength="144.4691" x="157.55" y="147.6749">state != Alarm / unblock</text></g><!--link idle to prealarm--><g class="link" data-entity-1="ent0002" data-entity-2="ent0004" data-link-type="dependency" data-source-line="13" id="lnk7"><path d="M139.07,164.2879 C184.77,169.9779 247.02,177.3379 302.02,182.4879 C609.88,211.2879 687.22,215.3979 996.02,231.4879 C1009.23,232.1679 1223.78,231.0979 1234.02,239.4879 C1235.7456,240.9023 1237.3319,242.4412 1238.7894,244.0845 C1239.5182,244.9061 1240.2147,245.7538 1240.8804,246.625 C1241.0468,246.8429 1237.6528,242.2313 1237.8154,242.452" fill="none" id="idle-to-prealarm" style="stroke:#181818;stroke-width:1;"/><polygon fill="#181818" points="1241.3739,247.2829,1239.2568,237.6642,1238.4085,243.2571,1232.8156,242.4088,1241.3739,247.2829" style="stroke:#181818;stroke-width:1;"/><text fill="#000000" font-family="sans-serif" font-size="13" lengthAdjust="spacing" textLength="398.0213" x="997.02" y="227.3849">state == Inside || Takeoff || Landing / start prealarm monitoring</text></g><!--link *start*prealarm to prealarmTempReading--><g class="link" data-entity-1="ent0008" data-entity-2="ent0005" data-link-type="dependency" data-source-line="19" id="lnk9"><path d="M118.41,321.1879 C130.08,321.1879 135.74,321.1879 147.41,321.1879" fill="none" id="*start*prealarm-to-prealarmTempReading" style="stroke:#181818;stroke-width:1;"/><polygon fill="#181818" points="153.41,321.1879,144.41,317.1879,148.41,321.1879,144.41,325.1879,153.41,321.1879" style="stroke:#181818;stroke-width:1;"/></g><!--link prealarmTempReading to prealarmTempMonitoring--><g class="link" data-entity-1="ent0005" data-entity-2="ent0007" data-link-type="dependency" data-source-line="20" id="lnk10"><path d="M304.73,337.9979 C317.15,340.1579 329.92,342.0179 342.06,343.1879 C409.31,349.6679 578.72,348.5679 646.06,343.1879 C658.19,342.2179 664.9038,341.5799 677.4338,339.8899" fill="none" id="prealarmTempReading-to-prealarmTempMonitoring" style="stroke:#181818;stroke-width:1;"/><polygon fill="#181818" points="683.38,339.0879,673.9261,336.3268,678.4249,339.7562,674.9954,344.255,683.38,339.0879" style="stroke:#181818;stroke-width:1;"/><text fill="#000000" font-family="sans-serif" font-size="13" lengthAdjust="spacing" textLength="302.0813" x="343.06" y="339.0849">temp &gt;= PREALARM_TEMP / monitor temperature</text></g><!--reverse link prealarmTempReading to prealarmTempMonitoring--><g class="link" data-entity-1="ent0005" data-entity-2="ent0007" data-link-type="dependency" data-source-line="25" id="lnk14"><path d="M310.89,321.1879 C409.12,321.1879 574.59,321.1879 683.27,321.1879" fill="none" id="prealarmTempReading-backto-prealarmTempMonitoring" style="stroke:#181818;stroke-width:1;"/><polygon fill="#181818" points="304.89,321.1879,313.89,325.1879,309.89,321.1879,313.89,317.1879,304.89,321.1879" style="stroke:#181818;stroke-width:1;"/><text fill="#000000" font-family="sans-serif" font-size="13" lengthAdjust="spacing" textLength="342.5113" x="323.06" y="314.0849">temp &lt; PREALARM_TEMP / resume temperature reading</text></g><!--reverse link stopPrealarm to prealarmTempReading--><g class="link" data-entity-1="ent0006" data-entity-2="ent0005" data-link-type="dependency" data-source-line="21" id="lnk12"><path d="M197.1198,385.7346 C202.0598,375.8846 210.9,358.2779 219.3,341.5579" fill="none" id="stopPrealarm-backto-prealarmTempReading" style="stroke:#181818;stroke-width:1;"/><polygon fill="#181818" points="194.43,391.0979,202.0402,384.8462,196.6715,386.6285,194.8892,381.2598,194.43,391.0979" style="stroke:#181818;stroke-width:1;"/></g><!--link prealarmTempMonitoring to *end*prealarm--><g class="link" data-entity-1="ent0007" data-entity-2="ent0015" data-link-type="dependency" data-source-line="26" id="lnk16"><path d="M882.73,321.1879 C989.95,321.1879 1144.98,321.1879 1188.71,321.1879" fill="none" id="prealarmTempMonitoring-to-*end*prealarm" style="stroke:#181818;stroke-width:1;"/><polygon fill="#181818" points="1194.71,321.1879,1185.71,317.1879,1189.71,321.1879,1185.71,325.1879,1194.71,321.1879" style="stroke:#181818;stroke-width:1;"/><text fill="#000000" font-family="sans-serif" font-size="13" lengthAdjust="spacing" textLength="275.1712" x="901.21" y="314.0849">timer ended / complete prealarm monitoring</text></g><!--reverse link idle to stopPrealarm--><g class="link" data-entity-1="ent0002" data-entity-2="ent0006" data-link-type="dependency" data-source-line="28" id="lnk18"><path d="M63.4161,188.749 C52.2361,232.239 39.36,312.1479 81.02,364.8979 C101.23,390.4879 140.7,396.0579 166.71,396.7279" fill="none" id="idle-backto-stopPrealarm" style="stroke:#181818;stroke-width:1;"/><polygon fill="#181818" points="64.91,182.9379,58.7952,190.6586,63.6651,187.7805,66.5433,192.6504,64.91,182.9379" style="stroke:#181818;stroke-width:1;"/></g><!--link prealarm to waitOperations--><g class="link" data-entity-1="ent0004" data-entity-2="ent0008" data-link-type="dependency" data-source-line="29" id="lnk19"><path d="M1081.6194,396.9138 C1081.5097,397.0007 1081.4002,397.0877 1081.2907,397.1748 C1081.0718,397.3489 1080.8533,397.5236 1080.6352,397.6987 C1080.1991,398.0488 1079.7646,398.4007 1079.3317,398.7543 C1078.466,399.4615 1077.6069,400.1752 1076.7548,400.8948 C1073.3463,403.7732 1070.0481,406.7448 1066.875,409.7579 C1054.1825,421.8104 1047.1501,429.7736 1039.3901,439.8536" fill="none" id="prealarm-to-waitOperations" style="stroke:#181818;stroke-width:1;"/><polygon fill="#181818" points="1035.73,444.6079,1044.3897,439.9165,1038.7801,440.646,1038.0506,435.0363,1035.73,444.6079" style="stroke:#181818;stroke-width:1;"/><text fill="#000000" font-family="sans-serif" font-size="13" lengthAdjust="spacing" textLength="157.7031" x="1111.02" y="402.2949">/ wait ongoing operations</text></g><!--link waitOperations to alarm--><g class="link" data-entity-1="ent0008" data-entity-2="ent0009" data-link-type="dependency" data-source-line="32" id="lnk20"><path d="M964.4,484.1279 C934.16,496.5379 906.96,514.2479 926.02,533.8979 C946.45,554.9579 1167.29,523.3279 1190.02,541.8979 C1191.7475,543.3092 1193.3355,544.8454 1194.7945,546.4862 C1195.524,547.3067 1196.2212,548.1533 1196.8876,549.0235 C1197.0541,549.2411 1193.6555,544.6328 1193.8183,544.8532" fill="none" id="waitOperations-to-alarm" style="stroke:#181818;stroke-width:1;"/><polygon fill="#181818" points="1197.3815,549.6806,1195.2548,540.0641,1194.4121,545.6578,1188.8184,544.8151,1197.3815,549.6806" style="stroke:#181818;stroke-width:1;"/><text fill="#000000" font-family="sans-serif" font-size="13" lengthAdjust="spacing" textLength="341.3802" x="927.02" y="529.7949">state != Takeoff || Landing / switch to alarm monitoring</text></g><!--link *start*alarm to alarmTempReading--><g class="link" data-entity-1="ent0021" data-entity-2="ent0010" data-link-type="dependency" data-source-line="38" id="lnk22"><path d="M196.41,623.5979 C208.08,623.5979 213.74,623.5979 225.41,623.5979" fill="none" id="*start*alarm-to-alarmTempReading" style="stroke:#181818;stroke-width:1;"/><polygon fill="#181818" points="231.41,623.5979,222.41,619.5979,226.41,623.5979,222.41,627.5979,231.41,623.5979" style="stroke:#181818;stroke-width:1;"/></g><!--link alarmTempReading to alarmTempMonitoring--><g class="link" data-entity-1="ent0010" data-entity-2="ent0012" data-link-type="dependency" data-source-line="39" id="lnk23"><path d="M382.9,640.3579 C395.49,642.5379 408.46,644.4179 420.77,645.5979 C482.71,651.5379 638.76,650.7979 700.77,645.5979 C713.11,644.5679 720.1018,643.8469 732.8218,642.0069" fill="none" id="alarmTempReading-to-alarmTempMonitoring" style="stroke:#181818;stroke-width:1;"/><polygon fill="#181818" points="738.76,641.1479,729.2801,638.4776,733.8115,641.8637,730.4254,646.3952,738.76,641.1479" style="stroke:#181818;stroke-width:1;"/><text fill="#000000" font-family="sans-serif" font-size="13" lengthAdjust="spacing" textLength="278.9023" x="421.77" y="641.4949">temp &gt;= ALARM_TEMP / monitor temperature</text></g><!--reverse link alarmTempReading to alarmTempMonitoring--><g class="link" data-entity-1="ent0010" data-entity-2="ent0012" data-link-type="dependency" data-source-line="44" id="lnk27"><path d="M388.93,623.5979 C483.1,623.5979 637.55,623.5979 738.73,623.5979" fill="none" id="alarmTempReading-backto-alarmTempMonitoring" style="stroke:#181818;stroke-width:1;"/><polygon fill="#181818" points="382.93,623.5979,391.93,627.5979,387.93,623.5979,391.93,619.5979,382.93,623.5979" style="stroke:#181818;stroke-width:1;"/><text fill="#000000" font-family="sans-serif" font-size="13" lengthAdjust="spacing" textLength="319.3323" x="401.27" y="616.4949">temp &lt; ALARM_TEMP / resume temperature reading</text></g><!--reverse link stopAlarm to alarmTempReading--><g class="link" data-entity-1="ent0011" data-entity-2="ent0010" data-link-type="dependency" data-source-line="40" id="lnk25"><path d="M713.5763,694.294 C657.4663,684.674 485.85,655.2579 382.9,637.6079" fill="none" id="stopAlarm-backto-alarmTempReading" style="stroke:#181818;stroke-width:1;"/><polygon fill="#181818" points="719.49,695.3079,711.2954,689.8446,714.5619,694.463,709.9435,697.7295,719.49,695.3079" style="stroke:#181818;stroke-width:1;"/></g><!--link alarmTempMonitoring to *end*alarm--><g class="link" data-entity-1="ent0012" data-entity-2="ent0028" data-link-type="dependency" data-source-line="45" id="lnk29"><path d="M923.22,623.5979 C1004.71,623.5979 1109.91,623.5979 1144.97,623.5979" fill="none" id="alarmTempMonitoring-to-*end*alarm" style="stroke:#181818;stroke-width:1;"/><polygon fill="#181818" points="1150.97,623.5979,1141.97,619.5979,1145.97,623.5979,1141.97,627.5979,1150.97,623.5979" style="stroke:#181818;stroke-width:1;"/><text fill="#000000" font-family="sans-serif" font-size="13" lengthAdjust="spacing" textLength="191.7892" x="941.5" y="616.4949">timer ended / enter alarm state</text></g><!--reverse link prealarm to stopAlarm--><g class="link" data-entity-1="ent0004" data-entity-2="ent0011" data-link-type="dependency" data-source-line="47" id="lnk31"><path d="M1270.912,365.49 C1270.9772,365.6896 1269.2661,360.4886 1269.3308,360.6886 C1269.4601,361.0886 1269.5882,361.4895 1269.7151,361.8911 C1269.9687,362.6945 1270.2172,363.5009 1270.4598,364.3096 C1270.945,365.9269 1271.4064,367.553 1271.838,369.1802 C1272.7013,372.4348 1273.445,375.6942 1274.02,378.8979 C1296.94,506.8079 1329.91,589.2479 1226.02,667.3079 C1187.72,696.0879 838.24,698.2179 754.83,698.3179" fill="none" id="prealarm-backto-stopAlarm" style="stroke:#181818;stroke-width:1;"/><polygon fill="#181818" points="1269.0379,359.7902,1268.0492,369.5893,1270.5996,364.5401,1275.6489,367.0905,1269.0379,359.7902" style="stroke:#181818;stroke-width:1;"/></g><?plantuml-src dLHDQzj04BtlhvZwM12-1zkWWW-6c1fZoA6KebgJPB6qArPZaj3qltUqkrhhO-N4zS6iPzvylPddPvaZO5dH6-HO7usiI6eb14ag46PfaPaIAAjFCo5goeXjcxp06MGrI7w8vWlk01MPDvX3PWCAp44_FeeVNtz2agmSiet_LkZZ2NERuhTxkoo9OQYtS4e7Nox1DJ5tBj42ai8d3j0l5-XPER1FpCZAeEkjatYZwcRyztSuP2VaXfldVQPogPuu2UCCNG9BhIHfmxumocxiisE5c3y2-EFH1-OPJKPdWy20V8Xk_7jdxuRLfAjO5pQsSOOk5WjybRJJKj5g9MmEkm7JcNzO968V1sn3KQQFs02h9Upsw_G-tMz_7TRR7TFbExD-F-PqXJDNwFNUMUA7Qudp8QQudbXEVx1HgxsPs_CcMQA1xkoRxVfQgBtI60EUnyM8HeFrkSGkY-snNAtJhAnPzftl4LNE8fd3KPTLWKn9ZB6_ehS3knMhrG1ESZQzP9A-ssxulw7c4dDh0gsUT5DS1rzGneFr1xiblfz63BBQIgDRY5_0YwJZCv26IMMcCR7SeCbhWZJ8SDMKRsaAKam_r64qSLo1r-NtAUrD2o_rJBihN4RES3ZaVqXjIcUV4zb0OPFocjRMBSAwILNSAlzoj5WQl9JIYuvQsiG_?></g></svg>