<?plantuml 1.2026.2?><svg xmlns="http://www.w3.org/2000/svg" xmlns:xlink="http://www.w3.org/1999/xlink" contentStyleType="text/css" data-diagram-type="STATE" height="283px" preserveAspectRatio="none" style="width:429px;height:283px;background:#FFFFFF;" version="1.1" viewBox="0 0 429 283" width="429px" zoomAndPan="magnify"><defs/><g><g class="entity" data-qualified-name="idle" id="ent0002"><rect fill="#F1F1F1" height="50" rx="12.5" ry="12.5" style="stroke:#181818;stroke-width:0.5;" width="50" x="17.94" y="117"/><line style="stroke:#181818;stroke-width:0.5;" x1="17.94" x2="67.94" y1="146.0679" y2="146.0679"/><text fill="#000000" font-family="sans-serif" font-size="14" lengthAdjust="spacing" textLength="24.8639" x="30.508" y="136.9659">Idle</text></g><g class="entity" data-qualified-name="blocked" id="ent0003"><rect fill="#F1F1F1" height="50" rx="12.5" ry="12.5" style="stroke:#181818;stroke-width:0.5;" width="71.8838" x="7" y="227"/><line style="stroke:#181818;stroke-width:0.5;" x1="7" x2="78.8838" y1="256.0679" y2="256.0679"/><text fill="#000000" font-family="sans-serif" font-size="14" lengthAdjust="spacing" textLength="51.8838" x="17" y="246.9659">Blocked</text></g><g class="entity" data-qualified-name="prealarm" id="ent0004"><rect fill="#F1F1F1" height="50" rx="12.5" ry="12.5" style="stroke:#181818;stroke-width:0.5;" width="162.4915" x="87.7" y="7"/><line style="stroke:#181818;stroke-width:0.5;" x1="87.7" x2="250.1915" y1="36.0679" y2="36.0679"/><text fill="#000000" font-family="sans-serif" font-size="14" lengthAdjust="spacing" textLength="142.4915" x="97.7" y="26.9659">Pre-alarm monitoring</text></g><g class="entity" data-qualified-name="alarm" id="ent0005"><rect fill="#F1F1F1" height="50" rx="12.5" ry="12.5" style="stroke:#181818;stroke-width:0.5;" width="136.9276" x="285.48" y="7"/><line style="stroke:#181818;stroke-width:0.5;" x1="285.48" x2="422.4076" y1="36.0679" y2="36.0679"/><text fill="#000000" font-family="sans-serif" font-size="14" lengthAdjust="spacing" textLength="116.9276" x="295.48" y="26.9659">Alarm monitoring</text></g><g class="start_entity" data-qualified-name=".start." data-source-line="7" id="ent0002"><ellipse cx="42.94" cy="32" fill="#222222" rx="10" ry="10" style="stroke:#222222;stroke-width:1;"/></g><!--link *start* to idle--><g class="link" data-entity-1="ent0002" data-entity-2="ent0002" data-link-type="dependency" data-source-line="7" id="lnk3"><path d="M42.94,42.21 C42.94,58.53 42.94,87.04 42.94,110.63" fill="none" id="*start*-to-idle" style="stroke:#181818;stroke-width:1;"/><polygon fill="#181818" points="42.94,116.63,46.94,107.63,42.94,111.63,38.94,107.63,42.94,116.63" style="stroke:#181818;stroke-width:1;"/></g><!--link idle to blocked--><g class="link" data-entity-1="ent0002" data-entity-2="ent0003" data-link-type="dependency" data-source-line="9" id="lnk4"><path d="M42.94,167.24 C42.94,185.02 42.94,203.08 42.94,220.84" fill="none" id="idle-to-blocked" style="stroke:#181818;stroke-width:1;"/><polygon fill="#181818" points="42.94,226.84,46.94,217.84,42.94,221.84,38.94,217.84,42.94,226.84" style="stroke:#181818;stroke-width:1;"/></g><?plantuml-src Aov9B4bLKF9CoKbLKaWiLiW4ChYA8O9EEVd9sQafOF4a21ic5L2KgfkOarYKgv2RdvTPab-KcPSELbTGb0eMXobqnAO8ee8hMYjMGLVN3c8d5uW4Ss5M0G00?></g></svg>